<svg width="81" height="85" viewBox="0 0 81 85" fill="none" xmlns="http://www.w3.org/2000/svg">
<path id="Star 2" d="M34.7081 4.08123C37.4666 -0.181338 43.7032 -0.181337 46.4617 4.08123L47.7883 6.13124C49.5885 8.91307 53.0926 10.0516 56.1841 8.8592L58.4624 7.98048C63.1995 6.15338 68.245 9.81919 67.9712 14.8891L67.8395 17.3273C67.6608 20.636 69.8264 23.6168 73.0284 24.4692L75.388 25.0975C80.2944 26.4037 82.2216 32.3351 79.0201 36.2758L77.4804 38.171C75.391 40.7427 75.391 44.4271 77.4804 46.9988L79.0201 48.894C82.2216 52.8347 80.2944 58.7661 75.388 60.0723L73.0284 60.7006C69.8264 61.553 67.6608 64.5338 67.8395 67.8425L67.9712 70.2807C68.245 75.3506 63.1995 79.0164 58.4624 77.1893L56.1841 76.3106C53.0926 75.1182 49.5885 76.2567 47.7883 79.0386L46.4617 81.0886C43.7032 85.3511 37.4666 85.3511 34.7081 81.0886L33.3815 79.0386C31.5813 76.2567 28.0772 75.1182 24.9857 76.3106L22.7074 77.1893C17.9703 79.0164 12.9248 75.3506 13.1986 70.2807L13.3303 67.8425C13.509 64.5338 11.3434 61.553 8.14139 60.7006L5.78175 60.0723C0.875405 58.7661 -1.05182 52.8347 2.1497 48.894L3.68943 46.9988C5.77881 44.4271 5.7788 40.7427 3.68943 38.171L2.1497 36.2758C-1.05183 32.3351 0.875409 26.4037 5.78176 25.0975L8.14139 24.4692C11.3434 23.6168 13.509 20.636 13.3303 17.3273L13.1986 14.8891C12.9248 9.81919 17.9703 6.15338 22.7074 7.98048L24.9857 8.8592C28.0772 10.0516 31.5813 8.91306 33.3815 6.13124L34.7081 4.08123Z" fill="#E05F38"/>
</svg>
