<svg width="20" height="20" viewBox="0 0 20 20" fill="none" xmlns="http://www.w3.org/2000/svg">
<g id="Frame 1948756961">
<path id="Vector" d="M10 2C7.86337 2 6.13372 3.67488 6.13372 5.74384C6.13372 7.81281 7.86337 9.48769 10 9.48769C12.1366 9.48769 13.8663 7.81281 13.8663 5.74384C13.8663 3.67488 12.1366 2 10 2ZM11.5058 9.92118L8.49419 9.92118C5.46221 9.92118 3 12.3054 3 15.2414L3 17.4089C3 17.7438 3.26453 18 3.61047 18L16.3895 18C16.7355 18 17 17.7438 17 17.4089V15.2414C17 12.3054 14.5378 9.92118 11.5058 9.92118Z" fill="#EBE9D8"/>
</g>
</svg>
