<svg width="20" height="20" viewBox="0 0 20 20" fill="none" xmlns="http://www.w3.org/2000/svg">
<g id="Frame 1948756961">
<path id="Vector" d="M19.7 3.63741V15.1108C19.7 15.2799 19.6296 15.442 19.5044 15.5616C19.3791 15.6811 19.2093 15.7482 19.0321 15.7482H13.0214C12.4909 15.7482 11.9821 15.9491 11.6065 16.3066C11.2309 16.6642 11.0192 17.1494 11.0179 17.6557C11.0205 17.7858 10.9809 17.9136 10.9043 18.0213C10.8278 18.129 10.7181 18.2115 10.5904 18.2573C10.4891 18.2946 10.3797 18.3078 10.2718 18.2956C10.1639 18.2835 10.0608 18.2464 9.97129 18.1876C9.88181 18.1288 9.80871 18.0501 9.75832 17.9582C9.70793 17.8664 9.68178 17.7642 9.68214 17.6605C9.68214 17.1533 9.47105 16.6669 9.09531 16.3083C8.71957 15.9497 8.20995 15.7482 7.67857 15.7482H1.66786C1.49073 15.7482 1.32086 15.6811 1.19561 15.5616C1.07036 15.442 1 15.2799 1 15.1108V3.63741C1 3.46836 1.07036 3.30623 1.19561 3.18669C1.32086 3.06716 1.49073 3 1.66786 3H7.01071C7.71922 3 8.39871 3.26862 8.8997 3.74677C9.40069 4.22493 9.68214 4.87344 9.68214 5.54965V12.5397C9.67982 12.7042 9.74285 12.8634 9.85854 12.9854C9.97423 13.1073 10.134 13.1829 10.3058 13.197C10.3971 13.2028 10.4887 13.1906 10.5749 13.1612C10.6611 13.1317 10.7401 13.0857 10.8069 13.0259C10.8737 12.9661 10.9268 12.8939 10.9631 12.8137C10.9994 12.7335 11.0181 12.647 11.0179 12.5596V5.54965C11.0179 4.87344 11.2993 4.22493 11.8003 3.74677C12.3013 3.26862 12.9808 3 13.6893 3H19.0321C19.2093 3 19.3791 3.06716 19.5044 3.18669C19.6296 3.30623 19.7 3.46836 19.7 3.63741Z" fill="#8E8E83"/>
</g>
</svg>
