<svg width="44" height="44" viewBox="0 0 44 44" fill="none" xmlns="http://www.w3.org/2000/svg">
<path fill-rule="evenodd" clip-rule="evenodd" d="M11.6995 6.108C11.0028 6.45553 10.1478 7.30596 9.68836 8.1083C8.93985 9.41564 8.75619 10.7665 9.07956 12.5869C9.24021 13.491 9.80998 15.2751 10.0511 15.6287C10.1172 15.7257 10.0344 15.7431 9.61461 15.7211C7.20968 15.595 4.95386 16.2062 3.62981 17.3426C2.83649 18.0236 2.10213 19.6074 2.02052 20.8136C1.94788 21.8884 2.46988 23.9835 3.07922 25.0625C4.91335 28.31 8.9744 31.1774 14.7638 33.3124C15.6698 33.6465 16.4158 33.9394 16.4215 33.9633C16.4271 33.9872 16.3715 34.2561 16.2979 34.5607C15.7302 36.9116 16.7276 38.8822 18.774 39.4528C19.4544 39.6424 19.5706 39.6428 20.3579 39.4567C21.3066 39.2325 21.877 38.861 22.6668 37.9528L23.0776 37.4803L23.8935 37.9626C25.8546 39.1218 27.5474 39.0737 29.0292 37.8166C29.8445 37.125 30.197 36.4199 30.2294 35.4158C30.2414 35.0465 30.2612 34.742 30.2735 34.7391C30.2859 34.7362 30.5388 34.7815 30.8357 34.8398C31.2616 34.9234 31.5659 34.9016 32.2777 34.7365C33.0952 34.5468 33.234 34.4826 33.7568 34.0519C34.8982 33.111 35.4239 31.8288 35.2098 30.5073C35.0551 29.5525 34.6777 28.7927 33.9152 27.9007C33.277 27.1539 33.0894 26.743 33.1987 26.3309C33.2323 26.2043 33.7441 25.7188 34.3745 25.2158C36.8791 23.2168 38.3587 21.0652 39.0048 18.4817C39.233 17.5694 39.3985 15.9815 39.307 15.5818C39.2651 15.399 39.2805 15.3828 39.398 15.4866C39.6267 15.6884 38.5541 11.7705 38.1793 11.0349C36.8846 8.49349 34.3858 7.53715 32.3515 8.80453C32.0368 9.00057 31.7619 9.16504 31.7406 9.17007C31.7193 9.1751 31.5788 8.79197 31.4286 8.3187C30.804 6.3513 29.8847 4.99398 28.6668 4.24112C27.6994 3.64329 26.9779 3.52906 25.6768 3.7678C23.6393 4.14162 22.5542 5.21107 20.7369 8.63657C19.7955 10.4111 19.7071 10.4111 18.2661 8.63875C17.7002 7.94275 16.9624 7.14144 16.6266 6.85799C15.1714 5.63013 13.2454 5.33693 11.6995 6.108ZM12.0678 7.65008C11.628 7.94059 10.992 8.68218 10.8034 9.12451C10.2951 10.3168 10.2943 11.3186 10.8002 13.1685C11.411 15.4018 11.6398 15.7746 13.9018 18.2222C18.7011 23.4152 22.4678 27.8418 22.6141 28.4611C22.7419 29.002 21.9516 29.5715 21.5223 29.2478C21.4269 29.1759 20.8954 28.5405 20.3413 27.836C19.1112 26.272 16.618 23.4091 13.9125 20.4536C10.7896 17.0422 11.1996 17.3943 10.2271 17.2899C8.8408 17.1412 7.85045 17.216 6.55134 17.5676C5.55648 17.8368 5.32104 17.9373 4.88968 18.277C4.22563 18.7998 3.78075 19.5441 3.59112 20.4494C3.45851 21.0819 3.46377 21.3298 3.62804 22.1776C3.85046 23.3266 4.16194 24.0655 4.82688 25.0224C6.80863 27.8742 11.2254 30.6502 16.4507 32.3282C18.2782 32.915 18.3279 32.9754 17.9577 34.1607C17.6497 35.1466 17.5848 35.8651 17.7415 36.5525C17.9778 37.5888 18.8593 38.1812 19.9123 38.0114C20.4294 37.9281 20.5936 37.8518 21.0082 37.5022C21.2765 37.2761 21.7091 36.7645 21.9696 36.3654C22.3509 35.7809 22.5074 35.6245 22.7737 35.5616C23.0685 35.4919 23.1817 35.5488 23.8174 36.0865C25.0168 37.1008 25.9966 37.4337 27.05 37.1847C27.7679 37.0151 28.2924 36.6408 28.5628 36.1051C28.8586 35.5189 28.7947 35.0809 28.1888 33.5429C28.044 33.1756 28.0433 33.071 28.1838 32.867C28.4627 32.462 28.8313 32.4595 29.6619 32.8569C30.0783 33.0561 30.6358 33.2647 30.9007 33.3204C31.5321 33.4533 32.3763 33.2578 32.8284 32.8741C33.7113 32.1247 33.9174 31.4161 33.5816 30.2848C33.4116 29.7118 33.2687 29.4717 32.6819 28.7722C31.5719 27.4492 31.3787 26.5587 31.9725 25.5037C32.214 25.0745 32.5573 24.7308 33.5246 23.9498C36.4515 21.5863 37.8908 18.8329 37.8161 15.7394C37.7951 14.8662 37.3475 12.8299 37.0139 12.0889C36.3594 10.6358 35.2935 9.72955 34.2641 9.75099C33.6021 9.76472 32.9351 10.0895 32.4409 10.6387C32.0712 11.0496 32.0535 11.1704 32.1371 12.7173C32.3163 16.033 31.9152 19.9015 31.0164 23.5279C30.5598 25.3698 30.2892 25.9286 29.854 25.9283C29.512 25.9281 29.1326 25.6775 29.0694 25.4101C29.0451 25.3071 29.2201 24.4518 29.4585 23.5095C30.7289 18.4872 31.0226 13.732 30.2851 10.1324C29.7713 7.62555 29.1334 6.3709 27.9747 5.58821C27.2927 5.12767 26.6536 5.03946 25.7123 5.27593C25.1115 5.42687 24.8929 5.53824 24.3937 5.94813C23.7834 6.44893 23.2937 7.17495 21.7361 9.88827L21.1205 10.9605L21.3297 11.3908C21.5973 11.9414 22.4411 14.066 22.8916 15.3241C23.4273 16.8197 24.8445 22.5223 25.1345 24.3496C25.4266 26.1896 25.3832 26.4495 24.7592 26.597C24.4719 26.6649 24.322 26.6369 24.136 26.4804C23.909 26.2896 23.8803 26.1917 23.7449 25.1481C23.5441 23.6001 22.3257 18.4324 21.7534 16.7012C21.3019 15.3357 20.593 13.4659 20.0242 12.1401C19.7657 11.5375 19.7339 11.505 19.3294 11.43C18.7491 11.3224 18.0617 10.8234 17.5196 10.1163C16.0332 8.17775 15.2473 7.49924 14.2052 7.25498C13.5374 7.09839 12.6568 7.26121 12.0678 7.65008ZM2.3398 22.8717C2.54115 23.7238 2.6389 24.0687 2.55693 23.6382C2.47506 23.2078 2.31029 22.5105 2.19084 22.089C2.07146 21.6673 2.13845 22.0196 2.3398 22.8717Z" fill="#FFFFFA"/>
</svg>
