<svg width="21" height="20" viewBox="0 0 21 20" fill="none" xmlns="http://www.w3.org/2000/svg">
<g id="Frame 1948756961">
<g id="Vector">
<path d="M16.9879 10.7C17.2707 10.7 17.5 10.9293 17.5 11.2121V16.3C17.5 16.6849 17.185 17 16.8 17H4.2C3.81497 17 3.5 16.6849 3.5 16.3V3.7C3.5 3.31514 3.81497 3 4.2 3H9.28788C9.5707 3 9.8 3.2293 9.8 3.51212V10.1879C9.8 10.4707 10.0293 10.7 10.3121 10.7H16.9879V10.7Z" fill="#FFFFFA"/>
<path d="M17.5 3.7V7.9C17.5 8.28486 17.185 8.6 16.8 8.6C16.415 8.6 16.1 8.28486 16.1 7.9V5.39395L12.397 9.09697C12.257 9.22995 12.082 9.3 11.9 9.3C11.718 9.3 11.543 9.22995 11.403 9.09697C11.1299 8.82386 11.1299 8.37611 11.403 8.10303L15.1061 4.4H12.6C12.215 4.4 11.9 4.08486 11.9 3.7C11.9 3.31514 12.215 3 12.6 3H16.8C16.8561 3 16.9189 3.00684 16.975 3.02803C17.01 3.02803 17.0381 3.04205 17.0731 3.05605C17.157 3.09092 17.2341 3.14014 17.297 3.20303C17.3601 3.26592 17.4091 3.34316 17.444 3.42689C17.458 3.46211 17.472 3.49011 17.472 3.525C17.493 3.58105 17.5 3.64395 17.5 3.7Z" fill="#FFFFFA"/>
</g>
</g>
</svg>
