<svg width="2" height="10" viewBox="0 0 2 10" fill="none" xmlns="http://www.w3.org/2000/svg">
<path id="Vector" d="M0.999997 2.5C0.724998 2.5 0.489666 2.40217 0.294 2.2065C0.0983339 2.01084 0.000334179 1.77534 8.47453e-07 1.5C-0.000332484 1.22467 0.0976672 0.989336 0.294 0.794003C0.490332 0.59867 0.725664 0.50067 0.999997 0.500003C1.27433 0.499337 1.50983 0.597337 1.70649 0.794003C1.90316 0.99067 2.00099 1.226 1.99999 1.5C1.99899 1.774 1.90116 2.0095 1.70649 2.2065C1.51183 2.4035 1.27633 2.50134 0.999997 2.5ZM0.999997 9.5C0.791664 9.5 0.614665 9.42717 0.468999 9.2815C0.323333 9.13583 0.250333 8.95867 0.25 8.75V4.25C0.25 4.04167 0.322999 3.86467 0.468999 3.719C0.614998 3.57333 0.791998 3.50033 0.999997 3.5C1.208 3.49967 1.38516 3.57267 1.53149 3.719C1.67783 3.86533 1.75066 4.04233 1.74999 4.25V8.75C1.74999 8.95833 1.67716 9.1355 1.53149 9.2815C1.38583 9.4275 1.20866 9.50033 0.999997 9.5Z" fill="#FFFFFA"/>
</svg>
