<svg width="85" height="50" viewBox="0 0 85 50" fill="none" xmlns="http://www.w3.org/2000/svg">
<path d="M2.1903 32.7987C1.88084 32.7987 1.63798 32.6972 1.45779 32.494C1.2776 32.2909 1.18359 32.037 1.18359 31.7323V22.412C1.18359 22.0917 1.27369 21.8339 1.45779 21.6386C1.63798 21.4433 1.88476 21.3456 2.1903 21.3456C2.49583 21.3456 2.77395 21.4433 2.97764 21.6386C3.18133 21.8339 3.28317 22.0917 3.28317 22.412V25.9003H5.96641V27.8651H3.28317V31.7323C3.28317 32.037 3.18133 32.2948 2.97764 32.494C2.77395 32.6972 2.5115 32.7987 2.1903 32.7987ZM10.4907 32.5253C10.3105 32.6933 10.052 32.7714 9.72685 32.7675C9.39781 32.7597 9.1432 32.6659 8.96301 32.4862L3.87074 27.0331L8.66922 21.6815C8.84941 21.4862 9.10402 21.3768 9.43306 21.3456C9.7621 21.3183 10.0167 21.3886 10.1969 21.5526C10.4084 21.7479 10.5259 21.9667 10.5534 22.2128C10.5808 22.455 10.5024 22.6776 10.3223 22.8729L6.53047 26.9276L10.5534 31.2323C10.7335 31.412 10.8276 31.6268 10.8276 31.869C10.8276 32.1112 10.714 32.3339 10.4907 32.5292V32.5253Z" fill="#E05F38" stroke="#E05F38" stroke-width="0.94" stroke-miterlimit="10"/>
<path d="M13.7372 32.7773C13.4317 32.7773 13.181 32.6758 12.993 32.4727C12.8049 32.2695 12.7109 32.0156 12.7109 31.7109V22.4102C12.7109 22.0898 12.8049 21.832 12.993 21.6367C13.181 21.4414 13.4278 21.3438 13.7372 21.3438C14.0467 21.3438 14.317 21.4414 14.5128 21.6367C14.7087 21.832 14.8066 22.0898 14.8066 22.4102V31.7109C14.8066 32.0156 14.7087 32.2734 14.5128 32.4727C14.317 32.6758 14.0584 32.7773 13.7372 32.7773ZM14.5324 27.7812V25.8984H21.8888V27.7812H14.5324ZM22.351 32.7773C22.0455 32.7773 21.7869 32.6758 21.5871 32.4727C21.3835 32.2695 21.2816 32.0156 21.2816 31.7109V22.4102C21.2816 22.0898 21.3835 21.832 21.5871 21.6367C21.7908 21.4414 22.0455 21.3438 22.351 21.3438C22.6565 21.3438 22.9229 21.4414 23.107 21.6367C23.2872 21.832 23.3812 22.0898 23.3812 22.4102V31.7109C23.3812 32.0156 23.2911 32.2734 23.107 32.4727C22.9268 32.6758 22.6722 32.7773 22.351 32.7773Z" fill="#E05F38" stroke="#E05F38" stroke-width="0.94" stroke-miterlimit="10"/>
<path d="M31.2015 32.8828C30.2379 32.8828 29.3762 32.6758 28.6123 32.2656C27.8524 31.8555 27.2492 31.2539 26.8104 30.457C26.3717 29.6641 26.1484 28.6875 26.1484 27.5312V22.3906C26.1484 22.0859 26.2503 21.832 26.454 21.6289C26.6577 21.4258 26.9123 21.3242 27.2178 21.3242C27.5234 21.3242 27.7819 21.4258 27.9817 21.6289C28.1853 21.832 28.2872 22.0859 28.2872 22.3906V27.5312C28.2872 28.3125 28.4321 28.957 28.7259 29.4648C29.0197 29.9727 29.4192 30.3516 29.9206 30.5938C30.422 30.8359 30.99 30.9609 31.6167 30.9609C32.2435 30.9609 32.7527 30.8438 33.2189 30.6055C33.685 30.3672 34.061 30.0469 34.3392 29.6445C34.6173 29.2422 34.7583 28.7891 34.7583 28.2852H36.0784C36.0784 29.1484 35.8668 29.9297 35.4399 30.625C35.0129 31.3203 34.4332 31.8711 33.7007 32.2773C32.9682 32.6836 32.1338 32.8828 31.1976 32.8828H31.2015ZM35.8316 32.7773C35.526 32.7773 35.2675 32.6758 35.0677 32.4727C34.864 32.2695 34.7622 32.0156 34.7622 31.7109V22.3906C34.7622 22.0703 34.864 21.8125 35.0677 21.6172C35.2714 21.4219 35.526 21.3242 35.8316 21.3242C36.1371 21.3242 36.4113 21.4219 36.6072 21.6172C36.803 21.8125 36.901 22.0703 36.901 22.3906V31.7109C36.901 32.0156 36.803 32.2734 36.6072 32.4727C36.4113 32.6758 36.1528 32.7773 35.8316 32.7773Z" fill="#E05F38" stroke="#E05F38" stroke-width="0.94" stroke-miterlimit="10"/>
<path d="M43.6651 32.8594C42.7837 32.8594 42.0003 32.7227 41.307 32.4531C40.6136 32.1797 40.0692 31.8008 39.6735 31.3125C39.274 30.8242 39.0781 30.2656 39.0781 29.6406C39.0781 29.0156 39.2544 28.4766 39.6109 28.0313C39.9673 27.5859 40.4844 27.2109 41.162 26.9023C41.8397 26.5977 42.6545 26.3516 43.6024 26.1719C44.5543 25.9766 45.1967 25.7422 45.5296 25.4727C45.8665 25.1992 46.031 24.8477 46.031 24.418C46.031 23.9883 45.8077 23.6406 45.3612 23.4258C44.9146 23.2109 44.3976 23.1016 43.81 23.1016C43.3204 23.1016 42.8347 23.1797 42.3528 23.332C41.871 23.4844 41.4676 23.707 41.1464 24C40.9348 24.1953 40.7077 24.3281 40.453 24.3984C40.2023 24.4688 39.9986 24.4531 39.8459 24.3555C39.5795 24.1875 39.415 23.9727 39.3523 23.707C39.2897 23.4414 39.3523 23.1992 39.5286 22.9766C39.9477 22.4609 40.5392 22.0469 41.2991 21.7344C42.0591 21.4219 42.9012 21.2656 43.8257 21.2656C44.6091 21.2656 45.322 21.3867 45.9644 21.6328C46.6068 21.875 47.12 22.2344 47.5039 22.7109C47.8877 23.1836 48.0797 23.7695 48.0797 24.4648C48.0797 25.2734 47.7506 25.9531 47.0965 26.5039C46.4384 27.0547 45.4395 27.4766 44.0999 27.7695C42.9953 27.9922 42.2353 28.2539 41.8162 28.5547C41.3971 28.8555 41.1934 29.2148 41.209 29.6328C41.2208 30.0664 41.4323 30.3984 41.8397 30.6367C42.2432 30.875 42.8542 30.9922 43.6612 30.9922C44.3858 30.9922 45.0047 30.918 45.5179 30.7734C46.0271 30.6289 46.4306 30.4023 46.7244 30.0938C46.9202 29.8828 47.1435 29.7461 47.3942 29.6758C47.6449 29.6055 47.9034 29.6836 48.1698 29.9063C48.4087 30.1016 48.5262 30.3242 48.5262 30.5742C48.5262 30.8242 48.4205 31.0625 48.2129 31.2852C47.7506 31.7461 47.1082 32.125 46.2856 32.4258C45.463 32.7266 44.5895 32.875 43.6651 32.875V32.8594Z" fill="#E05F38" stroke="#E05F38" stroke-width="0.94" stroke-miterlimit="10"/>
<path d="M55.3665 32.8594C54.348 32.8594 53.4314 32.6055 52.6206 32.0977C51.8097 31.5898 51.1712 30.8984 50.7012 30.0273C50.2311 29.1562 50 28.1719 50 27.0703C50 25.9688 50.2546 24.9805 50.7638 24.1016C51.2731 23.2227 51.9664 22.5313 52.8399 22.0234C53.7134 21.5156 54.6966 21.2617 55.7856 21.2617C56.8746 21.2617 57.8538 21.5156 58.7195 22.0234C59.5852 22.5313 60.2746 23.2266 60.7839 24.1016C61.2931 24.9805 61.5477 25.9688 61.5477 27.0703H60.729C60.729 28.1719 60.494 29.1562 60.0278 30.0273C59.5578 30.8984 58.9193 31.5898 58.1085 32.0977C57.2976 32.6055 56.381 32.8594 55.3625 32.8594H55.3665ZM55.7856 30.9766C56.4985 30.9766 57.1331 30.8047 57.6932 30.4648C58.2534 30.125 58.6921 29.6562 59.0133 29.0625C59.3345 28.4687 59.4951 27.8047 59.4951 27.0664C59.4951 26.3281 59.3345 25.6406 59.0133 25.0508C58.6921 24.457 58.2534 23.9922 57.6932 23.6484C57.1331 23.3086 56.4985 23.1367 55.7856 23.1367C55.0727 23.1367 54.4538 23.3086 53.8897 23.6484C53.3256 23.9883 52.8752 24.457 52.5501 25.0508C52.221 25.6445 52.0565 26.3164 52.0565 27.0664C52.0565 27.8164 52.221 28.4687 52.5501 29.0625C52.8791 29.6562 53.3256 30.1211 53.8897 30.4648C54.4538 30.8047 55.0883 30.9766 55.7856 30.9766ZM60.4822 32.793C60.1767 32.793 59.9182 32.6914 59.7184 32.4883C59.5147 32.2852 59.4129 32.0312 59.4129 31.7266V28.5273L59.8124 26.3125L61.5516 27.0664V31.7266C61.5516 32.0312 61.4498 32.2891 61.2461 32.4883C61.0424 32.6914 60.7878 32.793 60.4822 32.793Z" fill="#E05F38" stroke="#E05F38" stroke-width="0.94" stroke-miterlimit="10"/>
<path d="M16.2387 48.3125C15.1067 48.3125 14.1078 48.0664 13.2421 47.5703C12.3764 47.0742 11.6949 46.3945 11.1974 45.5234C10.6999 44.6523 10.4531 43.6523 10.4531 42.5234C10.4531 41.3945 10.6999 40.375 11.1974 39.5039C11.6949 38.6328 12.3725 37.9492 13.2421 37.457C14.1078 36.9609 15.1067 36.7148 16.2387 36.7148C17.3708 36.7148 18.3501 36.9609 19.2157 37.457C20.0814 37.9531 20.763 38.6328 21.2605 39.5039C21.758 40.375 22.0047 41.3828 22.0047 42.5234C22.0047 43.6641 21.7619 44.6523 21.2722 45.5234C20.7826 46.3945 20.1049 47.0781 19.2392 47.5703C18.3736 48.0664 17.3747 48.3125 16.2426 48.3125H16.2387ZM16.2387 46.4297C16.9634 46.4297 17.6097 46.2617 18.1659 45.9297C18.7261 45.5937 19.1609 45.1367 19.4743 44.5508C19.7876 43.9648 19.9443 43.2891 19.9443 42.5234C19.9443 41.7578 19.7876 41.0781 19.4743 40.4844C19.1609 39.8906 18.7222 39.4297 18.1659 39.0937C17.6058 38.7578 16.9634 38.5937 16.2387 38.5937C15.5141 38.5937 14.8677 38.7617 14.3115 39.0937C13.7513 39.4297 13.3126 39.8906 12.9914 40.4844C12.6702 41.0781 12.5096 41.7578 12.5096 42.5234C12.5096 43.2891 12.6702 43.9648 12.9914 44.5508C13.3126 45.1367 13.7513 45.5977 14.3115 45.9297C14.8716 46.2656 15.5141 46.4297 16.2387 46.4297Z" fill="#E05F38" stroke="#E05F38" stroke-width="0.94" stroke-miterlimit="10"/>
<path d="M30.1202 48.25C29.8146 48.25 29.5561 48.1484 29.3563 47.9453C29.1526 47.7422 29.0508 47.4883 29.0508 47.1836V37.8828C29.0508 37.5625 29.1526 37.3047 29.3563 37.1094C29.56 36.9141 29.8146 36.8164 30.1202 36.8164C30.4257 36.8164 30.6999 36.9141 30.8957 37.1094C31.0916 37.3047 31.1895 37.5625 31.1895 37.8828V47.1836C31.1895 47.4883 31.0916 47.7461 30.8957 47.9453C30.6999 48.1484 30.4414 48.25 30.1202 48.25ZM37.1201 48.25C36.8145 48.25 36.556 48.1484 36.3562 47.9453C36.1525 47.7422 36.0507 47.4883 36.0507 47.1836V41.207C36.0507 40.3281 35.8352 39.6797 35.4004 39.2539C34.9656 38.8281 34.4016 38.6172 33.7043 38.6172C33.0071 38.6172 32.3764 38.8672 31.9024 39.3711C31.4285 39.8711 31.1895 40.5156 31.1895 41.293H29.8695C29.8695 40.3867 30.0496 39.5898 30.4139 38.8984C30.7782 38.207 31.2796 37.668 31.922 37.2773C32.5644 36.8867 33.2969 36.6914 34.1235 36.6914C34.95 36.6914 35.6237 36.8672 36.2387 37.2148C36.8537 37.5625 37.3316 38.0742 37.6763 38.75C38.0171 39.4258 38.1894 40.2461 38.1894 41.207V47.1836C38.1894 47.4883 38.0915 47.7461 37.8957 47.9453C37.6998 48.1484 37.4413 48.25 37.1201 48.25ZM44.1004 48.25C43.7948 48.25 43.5363 48.1484 43.3365 47.9453C43.1329 47.7422 43.031 47.4883 43.031 47.1836V41.207C43.031 40.3281 42.8156 39.6797 42.3808 39.2539C41.946 38.8281 41.3819 38.6172 40.6846 38.6172C39.9874 38.6172 39.3607 38.8672 38.8945 39.3711C38.4245 39.8711 38.1934 40.5156 38.1934 41.293H36.4542C36.4542 40.3867 36.65 39.5898 37.0417 38.8984C37.4334 38.207 37.9818 37.668 38.6869 37.2773C39.392 36.8867 40.1989 36.6914 41.1077 36.6914C41.9029 36.6914 42.608 36.8672 43.2229 37.2148C43.8379 37.5625 44.3158 38.0742 44.6605 38.75C45.0013 39.4258 45.1737 40.2461 45.1737 41.207V47.1836C45.1737 47.4883 45.0757 47.7461 44.8799 47.9453C44.684 48.1484 44.4255 48.25 44.1043 48.25H44.1004Z" fill="#E05F38" stroke="#E05F38" stroke-width="0.94" stroke-miterlimit="10"/>
<path d="M53.3642 48.3125C52.2048 48.3125 51.1746 48.0664 50.2736 47.5703C49.3727 47.0742 48.6676 46.3945 48.1584 45.5234C47.6491 44.6523 47.3945 43.6523 47.3945 42.5234C47.3945 41.3945 47.6374 40.375 48.1192 39.5039C48.601 38.6328 49.2669 37.9492 50.1209 37.457C50.9748 36.9609 51.9501 36.7148 53.0548 36.7148C54.1594 36.7148 55.0799 36.957 55.8634 37.4375C56.6468 37.918 57.2422 38.582 57.6535 39.4219C58.0648 40.2656 58.2724 41.2383 58.2724 42.3359C58.2724 42.6016 58.1823 42.8203 57.9982 42.9961C57.818 43.1719 57.5869 43.2578 57.3049 43.2578H48.8595V41.5859H57.2422L56.3843 42.1719C56.3687 41.4766 56.2316 40.8516 55.9652 40.3008C55.6988 39.75 55.3228 39.3164 54.8332 38.9961C54.3435 38.6758 53.752 38.5156 53.0509 38.5156C52.2557 38.5156 51.5741 38.6914 51.0061 39.0391C50.4421 39.3867 50.0112 39.8633 49.7174 40.4727C49.4236 41.082 49.2787 41.7656 49.2787 42.5312C49.2787 43.2969 49.4549 43.9805 49.8036 44.5781C50.1522 45.1758 50.634 45.6523 51.249 46C51.864 46.3477 52.5691 46.5234 53.3642 46.5234C53.799 46.5234 54.2417 46.4453 54.6961 46.2812C55.1504 46.1211 55.5187 45.9375 55.7968 45.7266C56.0083 45.5742 56.2316 45.4922 56.4783 45.4844C56.7212 45.4766 56.9366 45.5508 57.1168 45.7031C57.3558 45.9102 57.4811 46.1406 57.4929 46.3945C57.5046 46.6445 57.395 46.8633 57.156 47.043C56.682 47.418 56.0905 47.7266 55.3855 47.9609C54.6804 48.1992 54.0066 48.3164 53.3642 48.3164V48.3125Z" fill="#E05F38" stroke="#E05F38" stroke-width="0.94" stroke-miterlimit="10"/>
<path d="M59.9453 42.9196L59.9649 40.5564C59.9767 38.9118 60.435 37.4079 61.3359 36.0407C62.2368 34.6735 63.6392 33.5681 65.539 32.7165L69.46 30.9821C69.7381 30.8689 69.9928 30.8532 70.216 30.9314C70.4393 31.0095 70.5999 31.1735 70.6978 31.4235C70.7958 31.6892 70.8193 31.9275 70.7723 32.1462C70.7213 32.361 70.5176 32.5525 70.1534 32.7204L65.8994 34.6657C64.9201 35.1111 64.1171 35.6423 63.4903 36.2556C62.8597 36.8689 62.3974 37.5564 62.0958 38.3142C61.7942 39.072 61.6297 39.8923 61.6023 40.7712L61.5592 42.9236H59.9453V42.9196ZM65.7074 48.3103C64.591 48.3103 63.5961 48.0798 62.7304 47.6189C61.8647 47.1579 61.187 46.5212 60.6974 45.7048C60.2078 44.8884 59.9571 43.9587 59.9414 42.9157H60.9677C60.9677 41.8571 61.1871 40.9275 61.6297 40.1267C62.0684 39.3259 62.6795 38.6931 63.4551 38.2361C64.2307 37.7751 65.1198 37.5446 66.1265 37.5446C67.1332 37.5446 68.0224 37.7751 68.798 38.2361C69.5736 38.697 70.1808 39.3259 70.6195 40.1267C71.0582 40.9275 71.2815 41.8571 71.2815 42.9157C71.2815 43.9743 71.0425 44.8923 70.5686 45.7048C70.0946 46.5212 69.4365 47.1579 68.5983 47.6189C67.76 48.0798 66.7964 48.3103 65.7074 48.3103ZM65.7074 46.4275C66.4047 46.4275 67.0157 46.279 67.5406 45.9782C68.0655 45.6775 68.4768 45.2634 68.7784 44.736C69.0801 44.2087 69.2289 43.5993 69.2289 42.9196C69.2289 42.24 69.0801 41.6345 68.7784 41.1111C68.4768 40.5876 68.0655 40.1775 67.5406 39.8767C67.0157 39.5759 66.4047 39.4275 65.7074 39.4275C65.0102 39.4275 64.3364 39.5759 63.7802 39.8767C63.22 40.1775 62.7852 40.5876 62.4719 41.1111C62.1585 41.6345 62.0018 42.236 62.0018 42.9196C62.0018 43.6032 62.1585 44.2087 62.4719 44.736C62.7852 45.2673 63.224 45.6814 63.7802 45.9782C64.3403 46.279 64.9827 46.4275 65.7074 46.4275Z" fill="#E05F38" stroke="#E05F38" stroke-width="0.94" stroke-miterlimit="10"/>
<path d="M78.9111 48.3125C77.7517 48.3125 76.7215 48.0664 75.8205 47.5703C74.9196 47.0742 74.2145 46.3945 73.7053 45.5234C73.1961 44.6523 72.9415 43.6523 72.9415 42.5234C72.9415 41.3945 73.1843 40.375 73.6661 39.5039C74.1479 38.6328 74.8138 37.9492 75.6678 37.457C76.5217 36.9609 77.4971 36.7148 78.6017 36.7148C79.7063 36.7148 80.6269 36.957 81.4103 37.4375C82.1937 37.918 82.7891 38.582 83.2004 39.4219C83.6117 40.2656 83.8193 41.2383 83.8193 42.3359C83.8193 42.6016 83.7292 42.8203 83.5451 42.9961C83.3649 43.1719 83.1338 43.2578 82.8518 43.2578H74.4065V41.5859H82.7891L81.9313 42.1719C81.9156 41.4766 81.7785 40.8516 81.5121 40.3008C81.2458 39.75 80.8697 39.3164 80.3801 38.9961C79.8904 38.6758 79.299 38.5156 78.5978 38.5156C77.8026 38.5156 77.121 38.6914 76.553 39.0391C75.989 39.3867 75.5581 39.8633 75.2643 40.4727C74.9705 41.082 74.8256 41.7656 74.8256 42.5312C74.8256 43.2969 75.0019 43.9805 75.3505 44.5781C75.6991 45.1758 76.1809 45.6523 76.7959 46C77.4109 46.3477 78.116 46.5234 78.9111 46.5234C79.346 46.5234 79.7886 46.4453 80.243 46.2812C80.6974 46.1211 81.0656 45.9375 81.3437 45.7266C81.5552 45.5742 81.7785 45.4922 82.0253 45.4844C82.2681 45.4766 82.4836 45.5508 82.6638 45.7031C82.9027 45.9102 83.0281 46.1406 83.0398 46.3945C83.0516 46.6445 82.9419 46.8633 82.7029 47.043C82.229 47.418 81.6375 47.7266 80.9324 47.9609C80.2273 48.1992 79.5536 48.3164 78.9111 48.3164V48.3125Z" fill="#E05F38" stroke="#E05F38" stroke-width="0.94" stroke-miterlimit="10"/>
<path d="M21.1742 8.76953C24.3236 8.88672 27.1361 9.78906 29.5686 11.8359C32.2793 14.1172 35.0565 14.0977 37.7946 11.8203C41.1555 9.02734 45.0099 8.38672 49.1934 9.16406C50.157 9.34375 50.631 9.9375 50.4939 10.6602C50.349 11.4141 49.7183 11.7656 48.7547 11.6133C45.1118 11.0352 41.8841 11.7891 38.9971 14.2148C35.7733 16.9219 31.5428 16.9102 28.3112 14.1953C25.4204 11.7695 22.1848 11.0352 18.5458 11.6211C17.6018 11.7734 16.9241 11.3945 16.8458 10.6289C16.7596 9.75781 17.2453 9.29297 18.0758 9.17187C19.106 9.02344 20.1401 8.90234 21.1742 8.76953Z" fill="#E05F38"/>
<path d="M45.5251 6.98861C43.829 7.2933 42.1094 7.50033 40.4525 7.94564C39.575 8.18392 38.7407 8.75033 38.0121 9.32455C35.1526 11.5863 32.1599 11.6331 29.3748 9.33626C26.8091 7.22298 23.7381 7.19173 20.6553 7.17611C20.3615 7.17611 20.0717 7.22689 19.7779 7.24642C19.1433 7.28939 18.6537 7.07845 18.5949 6.38705C18.5401 5.72298 18.9357 5.30111 19.5781 5.30111C21.4936 5.30111 23.4208 5.25423 25.3245 5.43392C27.4437 5.63314 29.3043 6.52767 30.9534 7.9222C32.626 9.34017 34.7178 9.31283 36.4139 7.89876C39.7748 5.09798 43.7115 4.90658 47.7932 5.2972C48.4395 5.3597 48.8939 5.81283 48.6941 6.41439C48.5766 6.77376 48.0125 7.05892 47.5895 7.21908C47.2879 7.33236 46.8844 7.17611 46.5279 7.16048C46.2028 7.14486 45.8777 7.16048 45.5486 7.16048C45.5408 7.10189 45.5291 7.0433 45.5212 6.9847L45.5251 6.98861Z" fill="#E05F38"/>
<path d="M24.4315 1.54222C27.1774 1.73754 29.7588 2.17113 31.8937 4.09691C32.9748 5.07347 34.526 4.96019 35.6658 3.94847C38.0749 1.80004 41.0206 1.62035 44.0054 1.53832C44.6126 1.52269 45.0435 1.82347 45.016 2.4641C44.9886 3.0891 44.5381 3.31566 43.9427 3.35863C42.6775 3.45629 41.4123 3.55004 40.1549 3.71019C38.8622 3.87816 37.7693 4.46801 36.7666 5.31566C34.9568 6.84301 32.5752 6.99535 30.8439 5.50316C28.9793 3.89379 26.8131 3.49926 24.506 3.36644C24.0516 3.3391 23.5463 3.46019 23.1506 3.30004C22.8059 3.15551 22.3672 2.70629 22.3711 2.39769C22.3711 2.10863 22.8568 1.71019 23.2133 1.57347C23.5815 1.42894 24.0476 1.54222 24.4237 1.54222H24.4315Z" fill="#E05F38"/>
</svg>
