<svg width="34" height="34" viewBox="0 0 34 34" fill="none" xmlns="http://www.w3.org/2000/svg">
<path d="M0 17C0 7.61116 7.61116 0 17 0C26.3888 0 34 7.61116 34 17C34 26.3888 26.3888 34 17 34C7.61116 34 0 26.3888 0 17Z" fill="#FFFFFA"/>
<path fill-rule="evenodd" clip-rule="evenodd" d="M13.3211 8.4026C13.1392 9.72384 12.3567 10.576 11.0108 10.9189C10.0253 11.1702 10.0292 11.4767 11.0206 11.7025C12.4594 12.03 12.95 12.5327 13.2796 14.0169C13.5342 15.163 13.8827 15.2424 14.0337 14.1888C14.2334 12.7935 15.089 11.8903 16.3965 11.6945C16.9098 11.6177 17.0751 11.5258 17.0751 11.3174C17.0751 11.1141 16.9097 11.0141 16.4422 10.9353C15.0912 10.7073 14.3676 9.98165 14.0799 8.56565C13.8463 7.41649 13.4681 7.3352 13.3211 8.4026ZM20.3962 11.7297C20.3399 11.7858 20.2932 12.0786 20.2921 12.3804C20.2873 13.8405 19.4494 15.6362 18.4282 16.3752C17.6626 16.9291 16.3137 17.4454 15.632 17.4454C15.0921 17.4454 14.7209 17.7271 14.8996 18.0013C14.958 18.0908 15.3732 18.2064 15.8223 18.2581C16.7673 18.3672 18.0093 18.8986 18.7179 19.4972C19.4379 20.1054 20.116 21.5981 20.2547 22.8803C20.3554 23.8113 20.4109 23.952 20.6771 23.952C20.9464 23.952 20.9958 23.8167 21.0835 22.8364C21.3091 20.3124 22.944 18.6195 25.512 18.2503C26.2033 18.151 26.3484 18.0773 26.3484 17.8266C26.3484 17.5718 26.2063 17.5055 25.4619 17.4126C22.9964 17.105 21.3876 15.4785 21.0603 12.9629C20.9812 12.3548 20.9144 11.8055 20.9118 11.7424C20.906 11.6002 20.535 11.591 20.3962 11.7297ZM10.7396 18.313C10.6834 18.369 10.6374 18.63 10.6374 18.8929C10.6374 19.6114 10.0262 20.6849 9.41865 21.0335C9.12773 21.2004 8.61041 21.3742 8.26906 21.4196C7.78148 21.4847 7.64844 21.5672 7.64844 21.8044C7.64844 22.0403 7.79129 22.1308 8.3014 22.2177C9.63094 22.4445 10.4278 23.2792 10.5857 24.6104C10.64 25.068 10.7669 25.4233 10.8935 25.4718C11.1357 25.5648 11.176 25.4827 11.4055 24.4269C11.4951 24.0145 11.7043 23.4865 11.8703 23.2536C12.2198 22.7635 13.3106 22.1914 13.8956 22.1914C14.117 22.1914 14.3424 22.1194 14.3968 22.0316C14.5492 21.7854 14.168 21.4259 13.7548 21.4259C13.2387 21.4259 12.2609 20.9005 11.8821 20.4194C11.7077 20.1981 11.5249 19.7656 11.4757 19.4584C11.3037 18.3852 11.2433 18.2108 11.0433 18.2108C10.9324 18.2108 10.7957 18.2568 10.7396 18.313Z" fill="#E05F38"/>
</svg>
