<svg width="44" height="44" viewBox="0 0 44 44" fill="none" xmlns="http://www.w3.org/2000/svg">
<path d="M17.6031 14.0505L17.6031 14.0505C17.7278 13.026 18.1748 10.3751 18.6147 7.9286C18.8349 6.70373 19.0538 5.52701 19.2305 4.62657C19.3188 4.17653 19.3968 3.79431 19.4593 3.50917C19.4905 3.36675 19.5181 3.24699 19.5415 3.15442C19.5631 3.06893 19.5854 2.98831 19.6074 2.93743L17.6031 14.0505ZM17.6031 14.0505C17.4987 14.9093 17.3996 16.3814 17.3822 17.3284L17.3822 17.3284M17.6031 14.0505L17.3822 17.3284M17.3822 17.3284C17.3622 18.4183 17.3481 19.0076 17.3235 19.3279C17.323 19.3348 17.3225 19.3415 17.3219 19.3481M17.3822 17.3284L17.3219 19.3481M10.8979 24.1135L10.6791 24.2249C9.16515 21.2499 6.69124 16.8392 5.80946 15.539C5.80946 15.539 5.80946 15.539 5.80946 15.539L6.01637 15.3986L10.8979 24.1135ZM10.8979 24.1135L10.6791 24.2249C12.5726 27.9458 14.3108 32.3719 15.4483 36.3694L15.6887 36.301M10.8979 24.1135L15.6887 36.301M15.6887 36.301L15.4483 36.3695C15.6403 37.0442 15.8337 37.6724 15.991 38.1414C16.0695 38.3754 16.1398 38.5726 16.1972 38.717C16.2256 38.7887 16.2525 38.8515 16.2767 38.9007C16.2887 38.925 16.3022 38.9503 16.3168 38.9733C16.3266 38.9886 16.3544 39.0322 16.401 39.0661C16.5939 39.2064 16.8696 39.1772 17.0384 39.0281L17.0384 39.0281M15.6887 36.301L17.0384 39.0281M17.0384 39.0281C17.0871 38.985 17.1118 38.9343 17.1246 38.9013C17.1383 38.8661 17.1461 38.8307 17.1511 38.8001C17.1609 38.7391 17.1635 38.6692 17.1624 38.5976C17.1603 38.4526 17.1425 38.2638 17.1136 38.0459C17.0555 37.6081 16.9486 37.0256 16.8118 36.3841C16.5381 35.1012 16.1405 33.5622 15.7612 32.4389C15.0334 30.2831 13.8397 27.2635 12.9289 25.2737L12.9289 25.2737M17.0384 39.0281L12.9289 25.2737M12.9289 25.2737C12.0457 23.3447 9.07814 17.8001 7.88878 15.8568C7.6364 15.4445 7.4211 15.0644 7.27762 14.7852C7.26811 14.7667 7.25896 14.7487 7.25019 14.7313C7.29765 14.7434 7.3487 14.7567 7.40305 14.7713C7.74166 14.8623 8.19578 14.9975 8.68285 15.155L8.68286 15.155M12.9289 25.2737L8.68286 15.155M8.68286 15.155C9.49157 15.4164 9.96135 15.5859 10.439 15.8396C10.9198 16.0949 11.4155 16.4391 12.2694 17.0611C14.3102 18.5477 15.3383 19.4798 16.4409 20.8332C16.8212 21.2999 17.1465 21.6268 17.4339 21.7756C17.5833 21.8529 17.7481 21.8956 17.9161 21.8581C18.0863 21.82 18.2129 21.7102 18.3057 21.5783L8.68286 15.155ZM19.385 12.1621C19.385 12.1621 19.385 12.1621 19.385 12.1621L19.1379 12.124L19.385 12.1621ZM19.385 12.1621C19.6896 10.1884 20.038 8.18416 20.3296 6.67111C20.4754 5.91417 20.6066 5.2825 20.7107 4.83979C20.7488 4.6776 20.7828 4.54317 20.812 4.43835C20.8557 4.47836 20.9055 4.52673 20.9611 4.5836C21.1738 4.80102 21.4498 5.11975 21.7606 5.50588C22.3814 6.27702 23.1275 7.30045 23.7613 8.28078C25.969 11.6955 27.2601 14.3621 28.1028 17.2315C28.2007 17.5647 28.3021 17.8827 28.3869 18.1273C28.4292 18.2493 28.4682 18.3553 28.5012 18.4366C28.5175 18.4771 28.5335 18.5141 28.5485 18.5451L19.385 12.1621ZM36.5758 35.503L36.229 33.6923C35.7902 31.4008 35.494 27.0994 35.6053 24.6432L35.855 24.6545L36.5758 35.503ZM36.5758 35.503L31.4528 36.3533C27.5306 37.0044 25.5838 37.3895 24.2683 37.7787L24.3392 38.0184L24.2683 37.7787C24.1579 37.8113 24.053 37.8422 23.9536 37.8712C25.0725 37.191 26.1484 36.4618 26.6857 36.0047C29.2169 33.8514 30.476 31.0652 30.0522 28.399L30.0522 28.399C29.9222 27.5816 29.8009 27.2081 29.4605 26.8755C29.1698 26.5914 28.8327 26.4255 28.468 26.384C28.1054 26.3429 27.7348 26.4267 27.3766 26.6093C26.6655 26.9716 25.9759 27.7349 25.4118 28.7984L25.4118 28.7985L25.1043 29.3782L24.8357 29.0684C24.8357 29.0684 24.8357 29.0684 24.8357 29.0683C24.1826 28.3147 23.326 28.0221 22.5378 28.1854C21.7499 28.3486 21.0774 28.9577 20.7715 29.9092C20.5172 30.7 20.6328 31.7558 20.985 32.804C21.3397 33.86 21.9472 34.9473 22.7259 35.8155C22.9213 36.0334 23.1005 36.2457 23.2314 36.4114C23.2696 36.4598 23.3031 36.5034 23.3312 36.5414C23.2432 36.6009 23.1205 36.6774 22.9682 36.7675C22.6224 36.9721 22.1395 37.2375 21.6035 37.5134L21.6035 37.5134C20.2912 38.1891 19.4564 38.6761 19.0451 39.0596C18.8458 39.2455 18.6833 39.4634 18.697 39.7137C18.7115 39.9764 18.9099 40.1497 19.1067 40.2665C19.2162 40.3316 19.3448 40.3494 19.4831 40.3475C19.623 40.3456 19.802 40.3227 20.0342 40.2798C20.4998 40.194 21.2255 40.0189 22.3738 39.7262C29.534 37.9007 33.9582 37.1384 37.1394 37.1684C37.9621 37.1761 38.4613 37.1717 38.7614 37.1069C38.9187 37.0729 39.0587 37.0155 39.1628 36.9038C39.2661 36.793 39.304 36.6603 39.3264 36.5486M36.5758 35.503L17.5287 19.5155L17.5237 19.5131C17.5209 19.5119 17.5156 19.5097 17.5083 19.5074C17.4997 19.5047 17.4599 19.4921 17.4064 19.501C17.3842 19.5046 17.3484 19.5166 17.3171 19.5466C17.2951 19.5678 17.2878 19.5862 17.2879 19.586C17.288 19.586 17.2882 19.5854 17.2887 19.5841C17.2965 19.5619 17.3097 19.4991 17.3219 19.3481M39.3264 36.5486C39.3264 36.5486 39.3264 36.5487 39.3263 36.5487L39.0812 36.4995L39.3264 36.5486ZM39.3264 36.5486C39.3522 36.4197 39.3412 36.2895 39.2847 36.1685C39.2293 36.0498 39.1382 35.9575 39.032 35.8871C38.8258 35.7507 38.5318 35.6763 38.1892 35.6448L38.1664 35.8938M38.1664 35.8938L38.1892 35.6448L37.8542 35.614L37.5313 33.4552C37.0738 30.3973 36.9562 27.1684 37.165 23.3397C37.4874 17.4251 37.7317 14.8895 38.4016 10.4952L38.1545 10.4575L38.4016 10.4952C38.5355 9.61674 38.6323 8.85792 38.686 8.28018C38.7128 7.9916 38.7291 7.74528 38.7336 7.5504C38.7379 7.36561 38.7328 7.19871 38.7033 7.08719C38.6743 6.97797 38.6451 6.87092 38.606 6.78496C38.564 6.69235 38.4975 6.59413 38.3776 6.53592C38.2683 6.48283 38.1507 6.48167 38.0506 6.4897C37.9479 6.49794 37.8226 6.52034 37.6782 6.54725C37.0897 6.65691 36.6956 6.95583 35.6141 7.97711C33.4749 9.99687 32.8486 10.7243 30.8915 13.4579C30.0497 14.6335 29.5956 15.2551 29.3368 15.5471C29.3202 15.5658 29.3048 15.5826 29.2906 15.5978C27.9886 12.3491 27.332 11.0448 25.7226 8.49058L25.5111 8.62385L25.7226 8.49058C23.9756 5.71808 22.5309 3.94206 21.1297 2.87595C21.1297 2.87595 21.1297 2.87594 21.1297 2.87594L20.9783 3.0749C20.2694 2.53549 20.056 2.52837 19.8369 3.03644C19.6341 3.50668 18.0985 12.0485 17.8513 14.0806C17.748 14.9303 17.6494 16.3937 17.6321 17.333C17.5923 19.5054 17.5754 19.7264 17.4471 19.7476C17.3892 19.7572 17.0385 19.4462 16.668 19.0565M38.1664 35.8938L37.6359 35.845L38.1664 35.8938ZM16.668 19.0565L16.8492 18.8842M16.668 19.0565L16.8492 18.8842C16.8492 18.8842 16.8492 18.8842 16.8492 18.8842M16.668 19.0565L16.8492 18.8842M16.8492 18.8842C17.0225 19.0665 17.1899 19.2297 17.3219 19.3481M16.8492 18.8842C16.2699 18.2749 15.3396 17.4496 14.4186 16.6995C13.4998 15.9513 12.5719 15.2627 11.9975 14.9345L16.8492 18.8842ZM5.34196 8.44645L5.34197 8.44646C5.39723 8.51927 5.4391 8.63219 5.47143 8.73033C5.50799 8.84132 5.54644 8.98004 5.5851 9.13503C5.66259 9.4457 5.74417 9.83488 5.81612 10.2263C5.88809 10.6179 5.95113 11.0155 5.99102 11.3432C6.01093 11.5068 6.02542 11.6557 6.03214 11.779C6.03842 11.8943 6.03965 12.0115 6.02235 12.0979C5.99285 12.2452 5.92318 12.373 5.81519 12.4629C5.70713 12.5529 5.57434 12.5932 5.44238 12.5871C5.1777 12.5749 4.94629 12.3847 4.84322 12.1023L5.34196 8.44645ZM5.34196 8.44645C5.19874 8.25775 4.99292 8.13844 4.7793 8.12858C4.55501 8.11823 4.33629 8.23367 4.23975 8.47321L5.34196 8.44645ZM6.58165 11.8532C6.68019 11.5756 6.94157 11.1715 7.33378 10.6533L6.58165 11.8532ZM6.58165 11.8532C6.55604 11.9253 6.53656 12.0017 6.53338 12.0775M6.58165 11.8532L6.53338 12.0775M6.53338 12.0775C6.53018 12.1537 6.54295 12.2477 6.60257 12.3319M6.53338 12.0775L6.60257 12.3319M6.60257 12.3319C6.72902 12.5106 6.94515 12.5001 7.06636 12.4801M6.60257 12.3319L7.06636 12.4801M7.06636 12.4801C7.13038 12.4695 7.18613 12.441 7.22322 12.4196M7.06636 12.4801L7.22322 12.4196M7.22322 12.4196C7.26493 12.3955 7.30795 12.3654 7.35033 12.333M7.22322 12.4196L7.35033 12.333M7.35033 12.333C7.43533 12.268 7.53295 12.1818 7.63579 12.0841M7.35033 12.333L7.63579 12.0841M7.63579 12.0841C7.84228 11.888 8.08449 11.6317 8.31383 11.3713M7.63579 12.0841L8.31383 11.3713M8.31383 11.3713C8.54308 11.111 8.76367 10.8418 8.92583 10.6192M8.31383 11.3713L8.92583 10.6192M8.92583 10.6192C9.00641 10.5086 9.07633 10.4044 9.12588 10.3157M8.92583 10.6192L9.12588 10.3157M9.12588 10.3157C9.15044 10.2717 9.17344 10.2255 9.18989 10.1804M9.12588 10.3157L9.18989 10.1804M9.18989 10.1804C9.20297 10.1445 9.22692 10.071 9.2133 9.98864M9.18989 10.1804L9.2133 9.98864M9.2133 9.98864C9.19487 9.87711 9.13172 9.791 9.07361 9.73264M9.2133 9.98864L9.07361 9.73264M9.07361 9.73264C9.01302 9.67181 8.93946 9.6223 8.86483 9.58446M9.07361 9.73264L8.86483 9.58446M8.86483 9.58446C8.72132 9.5117 8.52899 9.46012 8.3484 9.48997M8.86483 9.58446L8.3484 9.48997M8.3484 9.48997C8.29442 9.49889 8.25686 9.52369 8.24874 9.52906M8.3484 9.48997L8.24874 9.52906M8.24874 9.52906L8.24809 9.52949M8.24874 9.52906L8.24809 9.52949M8.24809 9.52949C8.23416 9.53863 8.22328 9.54758 8.21689 9.55305M8.24809 9.52949L8.21689 9.55305M8.21689 9.55305C8.20364 9.56438 8.19151 9.57645 8.18224 9.586M8.21689 9.55305L8.18224 9.586M8.18224 9.586C8.16283 9.60602 8.13982 9.6318 8.11513 9.66045M8.18224 9.586L8.11513 9.66045M8.11513 9.66045C8.06498 9.71861 7.99807 9.79999 7.9198 9.89759M8.11513 9.66045L7.9198 9.89759M7.9198 9.89759C7.76281 10.0934 7.55496 10.3609 7.3338 10.6532L7.9198 9.89759ZM1.19099 12.0594C1.13115 12.1635 1.10026 12.2833 1.09331 12.394M1.19099 12.0594L1.40771 12.184L1.19097 12.0594C1.19098 12.0594 1.19099 12.0594 1.19099 12.0594ZM1.19099 12.0594C1.24961 11.9575 1.3348 11.8587 1.4713 11.8027C1.59945 11.75 1.74142 11.7483 1.88815 11.7685C2.17468 11.8079 2.59861 11.9504 3.2429 12.1902L1.09331 12.394M1.09331 12.394C1.08662 12.5005 1.10035 12.6301 1.16432 12.7404L1.09331 12.394ZM4.05545 13.4592C3.99726 13.4937 3.93519 13.5057 3.89423 13.5113C3.84822 13.5175 3.79893 13.5191 3.75036 13.5184C3.65293 13.5169 3.53642 13.5055 3.41184 13.4881C3.16139 13.453 2.85476 13.3902 2.55484 13.3161C2.25493 13.2421 1.95491 13.155 1.71808 13.0697C1.60031 13.0272 1.49243 12.9832 1.40621 12.9392C1.36326 12.9173 1.32053 12.8928 1.28288 12.8656C1.24969 12.8416 1.19937 12.8008 1.16436 12.7404L4.05545 13.4592ZM4.05545 13.4592C4.05543 13.4592 4.05541 13.4592 4.05538 13.4592L3.92818 13.2446L4.05545 13.4592ZM23.4226 36.6767C23.4224 36.6764 23.4217 36.6751 23.4207 36.6728C23.4224 36.6759 23.4229 36.6771 23.4226 36.6767ZM3.14049 14.8189L3.29614 15.0146L3.14048 14.8189C2.70815 15.1629 2.32935 15.4998 2.05013 15.784C1.91082 15.9259 1.79288 16.0581 1.70479 16.1741C1.62437 16.28 1.54345 16.4043 1.51853 16.5245L1.51852 16.5246C1.49009 16.6619 1.52995 16.7979 1.58082 16.8991C1.63418 17.0052 1.71662 17.1079 1.8204 17.1834L1.82048 17.1835C1.93099 17.2638 2.09108 17.3703 2.29855 17.3177C2.38752 17.2952 2.46431 17.248 2.53049 17.1989C2.59765 17.149 2.67082 17.0839 2.75171 17.0088C3.0794 16.7044 3.57082 16.1691 3.97493 15.6981C4.17765 15.4619 4.36169 15.2379 4.4948 15.0635C4.56088 14.9769 4.61744 14.8985 4.65788 14.835C4.67771 14.8039 4.69737 14.7707 4.71248 14.7386C4.71996 14.7227 4.72904 14.7014 4.73597 14.6771C4.74141 14.658 4.75368 14.6103 4.74405 14.552C4.72833 14.4569 4.67615 14.3748 4.5958 14.3212C4.52366 14.273 4.44496 14.2583 4.38329 14.2548C4.26179 14.2479 4.12599 14.2803 4.00012 14.3245C3.74047 14.4157 3.42523 14.5924 3.14049 14.8189ZM24.1365 35.3521L23.9498 35.5184L24.1365 35.3521C23.2221 34.3253 22.57 33.1963 22.2462 32.1928C21.9175 31.1742 21.9458 30.3497 22.2849 29.869C22.3874 29.7237 22.5115 29.6452 22.643 29.6133C22.7776 29.5807 22.9373 29.5931 23.1105 29.6608C23.4597 29.7972 23.8351 30.15 24.069 30.6909C24.2784 31.1751 24.4472 31.5141 24.6114 31.7257C24.6954 31.8341 24.7901 31.925 24.9039 31.9817C25.024 32.0414 25.1467 32.0537 25.2667 32.0339C25.4626 32.0015 25.596 31.8688 25.6851 31.7095C25.7715 31.5551 25.8328 31.3488 25.8818 31.1019C25.98 30.6083 26.2137 30.0054 26.5072 29.4495C26.8021 28.8909 27.1435 28.4063 27.443 28.1353C27.6181 27.9769 27.75 27.8626 27.8567 27.7827C27.9654 27.7014 28.0302 27.6694 28.0707 27.6581C28.1085 27.6474 28.1488 27.6364 28.3499 27.7986C28.4182 27.8536 28.4978 27.974 28.5648 28.182C28.6299 28.384 28.6747 28.6423 28.6938 28.9387C28.7321 29.5315 28.6658 30.2462 28.4833 30.9064L28.4833 30.9064C28.0911 32.3257 26.8493 34.0529 25.4189 35.1393L24.5408 35.8062L24.1365 35.3521Z" fill="#FFFFFA" stroke="#FFFFFA" stroke-width="0.5"/>
</svg>
