<svg width="20" height="20" viewBox="0 0 20 20" fill="none" xmlns="http://www.w3.org/2000/svg">
<g id="Frame 1948756961">
<g id="Vector">
<path d="M18.2971 5.18276C17.8283 4.70203 17.2628 4.46161 16.6003 4.46161H14.5003L14.0222 3.15402C13.9034 2.83997 13.6863 2.56909 13.3706 2.34143C13.0549 2.11383 12.7315 2.00002 12.4002 2H7.60007C7.26881 2.00002 6.94535 2.11383 6.62968 2.34143C6.31405 2.56909 6.09687 2.83996 5.97813 3.15402L5.50002 4.46161H3.40001C2.7374 4.46161 2.17188 4.70203 1.70307 5.18276C1.23436 5.66348 1 6.2436 1 6.92311V15.5384C1 16.218 1.23436 16.7981 1.70307 17.2787C2.17188 17.7596 2.73743 18 3.40001 18H16.6001C17.2626 18 17.8281 17.7596 18.2969 17.2787C18.7656 16.7981 19 16.218 19 15.5384V6.92311C19.0001 6.24359 18.7657 5.66351 18.2971 5.18276ZM12.9673 14.2741C12.1454 15.1171 11.1564 15.5387 10 15.5387C8.8437 15.5387 7.85479 15.1171 7.03285 14.2741C6.21091 13.4313 5.80002 12.4167 5.80002 11.231C5.80002 10.0449 6.21104 9.03073 7.03285 8.18773C7.85467 7.34476 8.84373 6.92329 10 6.92331C11.7345 6.92335 12.1454 7.34483 12.9673 8.18773C13.7892 9.03062 14.2001 10.0449 14.2001 11.231C14.2001 12.4168 13.7892 13.4312 12.9673 14.2741Z" fill="#EBE9D8"/>
<path d="M10 8.46167C9.25627 8.46167 8.62031 8.73254 8.09216 9.27426C7.56401 9.81594 7.29994 10.4681 7.29994 11.2311C7.29994 11.9938 7.56401 12.646 8.09216 13.1877C8.62029 13.7293 9.25625 14.0001 10 14.0002C10.7438 14.0002 11.3797 13.7293 11.9079 13.1877C12.4361 12.6461 12.7002 11.9938 12.7002 11.2311C12.7002 10.4681 12.436 9.81598 11.9079 9.27426C11.3798 8.73255 10.7437 8.46167 10 8.46167Z" fill="#EBE9D8"/>
</g>
</g>
</svg>
